<svg id="Icons" xmlns="http://www.w3.org/2000/svg" viewBox="0 0 64 64"><defs><style>.cls-1{opacity:0.35;}.cls-2{fill:#4fc1e9;}.cls-3{opacity:0.05;}</style></defs><title>music</title><g id="Music"><g id="Hexagon_Border" data-name="Hexagon Border" class="cls-1"><path class="cls-2" d="M54.25,8.69h0l-.11-.05h0L36.25.69h0A8,8,0,0,0,30,.58h0l-.12,0h0L10,8.57h0A8,8,0,0,0,5,16V48a8,8,0,0,0,5,7.42h0l19.85,7.94h0l.12,0h0a8,8,0,0,0,6.22-.12h0L54.1,55.37h0l.11-.05h0A8,8,0,0,0,59,48V16A8,8,0,0,0,54.25,8.69ZM57,48a6,6,0,0,1-3.57,5.48h0l-.1,0h0l-17.89,8h0a5.89,5.89,0,0,1-4.66.09h0l-.1,0h0l-19.89-8h0A6,6,0,0,1,7,48V16a6,6,0,0,1,3.77-5.56h0l19.89-8h0l.1,0h0a5.89,5.89,0,0,1,4.66.09h0l17.89,8h0l.1,0h0A6,6,0,0,1,57,16Z"/></g><g id="Hexagon_Base" data-name="Hexagon Base" class="cls-3"><path class="cls-2" d="M53.43,10.52h0l-.1,0h0l-17.89-8h0a5.89,5.89,0,0,0-4.66-.09h0l-.1,0h0l-19.89,8h0A6,6,0,0,0,7,16V48a6,6,0,0,0,3.77,5.56h0l19.89,8h0l.1,0h0a5.89,5.89,0,0,0,4.66-.09h0l17.89-8h0l.1,0h0A6,6,0,0,0,57,48V16A6,6,0,0,0,53.43,10.52Z"/></g><g id="Icon"><path class="cls-2" d="M43,15a2,2,0,0,0-.48.07h0l-16,4h0A2,2,0,0,0,25,21V39.82A5.8,5.8,0,0,0,22,39c-2.76,0-5,1.79-5,4s2.24,4,5,4,5-1.79,5-4V27.06l16-4V35.82A5.8,5.8,0,0,0,40,35c-2.76,0-5,1.79-5,4s2.24,4,5,4,5-1.79,5-4V17A2,2,0,0,0,43,15ZM22,45c-1.66,0-3-.9-3-2s1.34-2,3-2,3,.9,3,2S23.66,45,22,45Zm5-20V21l16-4v4ZM40,41c-1.66,0-3-.9-3-2s1.34-2,3-2,3,.9,3,2S41.66,41,40,41Z"/></g></g></svg>